<svg width="919" height="334" viewBox="0 0 919 334" fill="none" xmlns="http://www.w3.org/2000/svg">
<path d="M229.948 249.016C229.548 246.616 232.781 245.349 234.448 245.016L212.448 243.016L228.448 263.016L237.448 266.016C237.614 266.182 246.248 266.016 253.448 266.016C262.448 266.016 267.448 264.016 268.448 262.516C269.827 260.447 267.691 256.597 262.948 255.016C259.948 254.016 256.948 253.516 246.948 253.016C239.44 252.64 230.448 252.016 229.948 249.016Z" fill="#A49FA6"/>
<path d="M226.948 245.016C225.114 245.849 221.548 248.216 221.948 251.016C222.448 254.516 232.322 255.661 236.948 259.516C239.948 262.016 240.448 263.516 240.448 264.516C240.448 265.516 238.948 268.016 233.448 268.016C229.048 268.016 203.281 266.682 190.948 266.016C180.948 265.016 169.448 264.016 168.448 263.516C165.563 262.073 166.781 259.349 166.948 259.016C164.448 260.016 160.948 260.516 159.948 259.516C158.56 258.129 158.762 256.991 158.928 256.855C156.751 258.125 151.796 259.009 150.948 256.843C149.748 253.781 147.614 245.182 147.948 242.016L172.948 235.516L226.948 245.016Z" fill="#BBB8BD"/>
<path d="M301.948 78.0158C295.948 85.0158 283.448 103.016 279.948 103.516C269 97.4841 245.248 83.9158 192.448 81.5158C126.448 78.5158 71.9477 136.016 66.9477 140.016C61.9477 144.016 58.9477 142.516 55.4477 144.516C52.6477 146.116 52.9477 148.849 53.4477 150.016C51.6144 150.182 48.0477 151.416 48.4477 155.016C48.8477 158.616 53.6143 160.849 55.9476 161.516C49.6143 171.516 36.9476 183.516 35.4477 187.516C33.9478 191.516 -3.43585 220.229 2.99995 221.984C8.50006 223.484 15.4477 220.682 20.4477 219.016C19.6143 220.016 18.7477 221.916 21.9477 221.516C25.1477 221.116 39.6143 216.682 46.4477 214.516C45.6143 215.849 45.1477 218.416 49.9477 218.016C54.7477 217.616 64.9476 214.516 69.4476 213.016C68.281 214.349 67.2476 217.016 72.4476 217.016C77.6476 217.016 88.9476 211.016 93.9476 208.016C94.6143 212.516 97.4476 222.016 103.448 224.016C109.448 226.016 114.614 225.182 116.448 224.516C116.114 227.016 116.648 232.316 121.448 233.516C126.248 234.716 132.448 234.682 134.948 234.516C134.948 236.849 136.348 241.816 141.948 243.016C147.548 244.216 157.281 243.182 161.448 242.516C160.781 244.849 161.348 249.816 168.948 251.016C178.448 252.516 204.948 251.016 222.448 248.516C242.273 245.683 272.448 231.516 291.448 218.016C310.448 204.516 331.068 184.948 334.448 169.016C337.948 152.516 335.448 123.516 337.448 117.516C339.158 112.385 350.948 108.516 354.448 100.516C354.938 99.3938 355.448 97.5157 355.448 95.5157C355.936 92.9041 356.61 89.9171 356.448 87.5157C356.33 85.7801 354.312 83.1532 353.948 82.5157C351.948 79.0157 349.213 75.8149 345.948 73.0157C342.448 70.0157 336.687 66.3904 326.948 66.0157C313.948 65.5156 307.948 71.0158 301.948 78.0158Z" fill="#D4D2D5"/>
<path d="M332.448 87.5157C332.448 86.0157 329.948 83.5157 327.448 83.5157C323.948 83.5157 322.448 85.5157 322.448 87.5157C322.448 89.5157 324.448 90.5157 327.448 90.5157C330.448 90.5157 332.448 89.0157 332.448 87.5157Z" fill="#1D223C"/>
<path d="M361.948 88.0157C359.948 85.2157 355.614 83.1824 353.948 82.5157C354.614 83.8491 355.948 86.7157 355.948 87.5157C355.948 88.5157 353.448 90.0157 352.448 90.0157L365.448 94.5157C365.114 93.5157 363.948 90.8157 361.948 88.0157Z" fill="#2B3152"/>
<path d="M358.448 96.5158C361.648 96.5158 364.448 95.1824 365.448 94.5158L352.448 90.0157C351.614 90.3491 350.148 90.5157 348.948 90.5157C347.748 90.5157 345.781 92.5158 344.448 94.0158C346.948 93.8491 352.048 93.7158 352.448 94.5158C352.848 95.3158 351.281 95.5158 350.448 95.5158C351.781 95.8491 355.248 96.5158 358.448 96.5158Z" fill="#1D223C"/>
<path d="M345.974 109.578C342.122 112.408 338.358 114.785 337.448 117.516C336.734 119.656 336.595 124.723 336.55 131.106C336.549 131.107 336.549 131.108 336.548 131.109C329.048 125.276 315.748 113.116 322.948 113.516C330.142 113.915 341.301 111.245 345.974 109.578Z" fill="#A49FA6"/>
<path d="M55.8763 161.838C60.1456 165.205 67.1147 169.919 73.5697 173.792C76.7952 175.728 79.8658 177.438 82.3861 178.659C83.6474 179.269 84.7483 179.746 85.6478 180.067C86.5884 180.403 87.1694 180.516 87.4476 180.516C88.3207 180.516 88.6064 180.302 88.6781 180.232C88.7416 180.17 88.8506 180.014 88.848 179.587C88.8421 178.648 88.2905 177.31 87.6703 176.302C87.2402 175.603 87.4518 174.689 88.1449 174.25C88.8382 173.81 89.7561 174.009 90.2045 174.697C91.4134 176.55 93.6126 179.534 96.2386 182.388C98.8903 185.27 101.855 187.884 104.582 189.157C105.961 189.8 106.736 189.853 107.106 189.785C107.361 189.738 107.507 189.627 107.641 189.329C107.807 188.957 107.898 188.367 107.864 187.602C107.831 186.861 107.686 186.08 107.502 185.417C107.288 184.645 107.719 183.841 108.48 183.591C109.241 183.341 110.064 183.733 110.349 184.482C110.983 186.146 112.239 188.854 113.911 191.471C115.606 194.123 117.616 196.503 119.703 197.72C120.419 198.138 120.661 199.056 120.244 199.772C119.826 200.487 118.907 200.729 118.192 200.312C115.479 198.73 113.155 195.86 111.383 193.086C110.94 192.393 110.525 191.695 110.14 191.008C109.633 191.851 108.82 192.519 107.649 192.735C106.389 192.967 104.933 192.632 103.313 191.875C100.041 190.348 96.7548 187.379 94.0316 184.419C93.1149 183.423 92.2497 182.41 91.4535 181.432C91.2908 181.767 91.0708 182.089 90.7738 182.378C89.9428 183.189 88.773 183.516 87.4476 183.516C86.6259 183.516 85.6371 183.249 84.639 182.893C83.5999 182.522 82.393 181.994 81.0785 181.358C78.4468 180.084 75.2918 178.325 72.0258 176.365C65.5359 172.47 58.4999 167.717 54.097 164.254C54.6937 163.418 55.2574 162.588 55.7816 161.771C55.8135 161.792 55.8457 161.814 55.8763 161.838Z" fill="#A49FA6"/>
<path d="M255.948 123.016C250.281 116.016 229.948 93.0158 180.948 97.0158" stroke="#A49FA6" stroke-width="3" stroke-linecap="round"/>
<path d="M9.49994 212.984C13.0999 210.184 22.8333 202.984 28.4999 199.984C31.4999 198.984 33.4999 201.984 32.9999 203.484C32.3675 205.381 6.00002 217.984 6.50002 219.984C6.90002 221.584 9.49994 221.484 12.4999 221.484C10.9999 221.984 5.50009 223.984 3.00004 222.484C1.25109 221.435 1.99995 219.984 2.49997 219.484C3.99997 217.484 4.99994 216.484 9.49994 212.984Z" fill="#242945"/>
<path d="M479.128 146.896L466.84 156.624C462.104 150.096 453.528 147.28 446.232 147.28C427.544 147.28 414.872 161.744 414.872 180.432C414.872 200.144 426.904 213.84 445.592 213.84C455.32 213.84 463 209.616 467.608 203.344L480.536 212.432C472.6 222.416 460.824 228.304 445.464 228.304C417.176 228.304 397.08 208.72 397.08 180.432C397.08 151.376 418.328 133.072 446.232 133.072C458.008 133.072 471.96 137.424 479.128 146.896ZM523.965 162.768C539.965 162.768 546.621 175.056 546.621 187.6V226H531.261V192.208C531.261 184.912 529.725 175.952 519.869 175.952C510.141 175.952 505.405 184.272 505.405 192.464V226H490.045V129.232H505.405V173.136H505.661C508.093 168.016 514.877 162.768 523.965 162.768ZM620.603 164.56V226H606.011V216.144H605.755C603.067 222.288 595.771 227.792 586.683 227.792C570.683 227.792 564.027 215.504 564.027 202.96V164.56H579.387V198.608C579.387 205.904 581.051 214.992 590.907 214.992C600.635 214.992 605.243 206.544 605.243 198.352V164.56H620.603ZM686.911 164.56H701.503V220.496C701.503 242.64 690.751 256.72 666.815 256.72C656.831 256.72 644.287 253.136 636.351 246.608L645.183 234.704C651.071 240.336 659.007 243.408 666.687 243.408C681.535 243.408 686.143 234.448 686.143 222.288V217.808H685.887C681.407 223.824 674.239 227.024 665.791 227.024C647.359 227.024 635.455 212.432 635.455 195.024C635.455 177.232 646.975 162.768 665.535 162.768C674.111 162.768 682.175 166.352 686.655 173.776H686.911V164.56ZM668.735 175.312C657.599 175.312 651.071 184.016 651.071 194.896C651.071 204.624 657.599 214.352 668.607 214.352C679.999 214.352 686.911 205.136 686.911 194.896C686.911 184.272 679.871 175.312 668.735 175.312ZM758.058 226V218.192H757.674C754.602 223.568 747.306 227.536 738.602 227.536C728.746 227.536 715.562 222.8 715.562 208.464C715.562 190.16 738.602 187.6 757.802 187.6V186.064C757.802 178.512 751.402 174.8 743.722 174.8C737.194 174.8 730.922 177.872 726.954 181.84L719.018 172.496C725.93 166.096 735.658 162.768 745.002 162.768C767.018 162.768 772.394 176.336 772.394 188.624V226H758.058ZM757.802 200.144V197.968H754.346C744.618 197.968 730.922 199.12 730.922 208.208C730.922 214.096 736.426 215.888 741.674 215.888C752.17 215.888 757.802 209.872 757.802 200.144ZM842.769 172.368L832.273 181.584C829.841 178.128 824.593 175.568 819.601 175.568C808.337 175.568 802.705 185.68 802.705 195.28C802.705 204.88 808.465 214.992 820.113 214.992C824.849 214.992 830.097 213.072 833.041 209.488L842.641 219.216C837.521 224.72 829.073 227.792 819.985 227.792C801.809 227.792 786.705 215.76 786.705 195.28C786.705 175.312 801.553 162.768 819.601 162.768C828.561 162.768 837.905 166.352 842.769 172.368ZM886.965 162.768C902.965 162.768 909.621 175.056 909.621 187.6V226H894.261V192.208C894.261 184.912 892.725 175.952 882.869 175.952C873.141 175.952 868.405 184.272 868.405 192.464V226H853.045V129.232H868.405V173.136H868.661C871.093 168.016 877.877 162.768 886.965 162.768Z" fill="#D4D2D5"/>
</svg>
