<svg width="366" height="203" viewBox="0 0 366 203" fill="none" xmlns="http://www.w3.org/2000/svg">
<path d="M229.948 183.032C229.548 180.632 232.781 179.365 234.448 179.032L212.448 177.032L228.448 197.032L237.448 200.032C237.614 200.198 246.248 200.032 253.448 200.032C262.448 200.032 267.448 198.032 268.448 196.532C269.827 194.462 267.691 190.613 262.948 189.032C259.948 188.032 256.948 187.532 246.948 187.032C239.44 186.656 230.448 186.032 229.948 183.032Z" fill="#A49FA6"/>
<path d="M226.948 179.032C225.114 179.865 221.548 182.232 221.948 185.032C222.448 188.532 232.322 189.677 236.948 193.532C239.948 196.032 240.448 197.532 240.448 198.532C240.448 199.532 238.948 202.032 233.448 202.032C229.048 202.032 203.281 200.698 190.948 200.032C180.948 199.032 169.448 198.032 168.448 197.532C165.563 196.089 166.781 193.365 166.948 193.032C164.448 194.032 160.948 194.532 159.948 193.532C158.56 192.144 158.762 191.007 158.928 190.871C156.751 192.141 151.796 193.025 150.948 190.859C149.748 187.797 147.614 179.198 147.948 176.032L172.948 169.532L226.948 179.032Z" fill="#BBB8BD"/>
<path d="M301.947 12.0316C295.947 19.0316 283.447 37.0316 279.947 37.5316C269 31.5 245.248 17.9317 192.448 15.5317C126.448 12.5317 71.9476 70.0317 66.9476 74.0317C61.9476 78.0317 58.9476 76.5317 55.4476 78.5317C52.6476 80.1317 52.9476 82.865 53.4476 84.0317C51.6143 84.1983 48.0476 85.4317 48.4476 89.0317C48.8476 92.6317 53.6143 94.865 55.9476 95.5316C49.6143 105.532 36.9476 117.532 35.4476 121.532C33.9477 125.532 -3.43591 154.245 2.99989 156C8.5 157.5 15.4476 154.698 20.4476 153.032C19.6143 154.032 18.7476 155.932 21.9476 155.532C25.1476 155.132 39.6143 150.698 46.4476 148.532C45.6143 149.865 45.1476 152.432 49.9476 152.032C54.7476 151.632 64.9476 148.532 69.4476 147.032C68.2809 148.365 67.2476 151.032 72.4476 151.032C77.6476 151.032 88.9476 145.032 93.9476 142.032C94.6142 146.532 97.4476 156.032 103.448 158.032C109.448 160.032 114.614 159.198 116.448 158.532C116.114 161.032 116.648 166.332 121.448 167.532C126.248 168.732 132.448 168.698 134.948 168.532C134.948 170.865 136.348 175.832 141.948 177.032C147.548 178.232 157.281 177.198 161.448 176.532C160.781 178.865 161.348 183.832 168.948 185.032C178.448 186.532 204.948 185.032 222.448 182.532C242.273 179.699 272.448 165.532 291.448 152.032C310.448 138.532 331.068 118.964 334.448 103.032C337.948 86.5316 335.448 57.5316 337.448 51.5316C339.158 46.4008 350.948 42.5316 354.448 34.5316C354.938 33.4097 355.448 31.5316 355.448 29.5316C355.936 26.9199 356.61 23.9329 356.448 21.5316C356.33 19.796 354.312 17.169 353.948 16.5316C351.948 13.0316 349.213 9.83072 345.948 7.03156C342.448 4.03156 336.687 0.406225 326.948 0.0315919C313.948 -0.468484 307.947 5.03164 301.947 12.0316Z" fill="#D4D2D5"/>
<path d="M332.448 21.5316C332.448 20.0316 329.948 17.5316 327.448 17.5316C323.948 17.5316 322.448 19.5316 322.448 21.5316C322.448 23.5316 324.448 24.5316 327.448 24.5316C330.448 24.5316 332.448 23.0316 332.448 21.5316Z" fill="#1D223C"/>
<path d="M361.948 22.0316C359.948 19.2316 355.614 17.1983 353.948 16.5316C354.614 17.8649 355.948 20.7316 355.948 21.5316C355.948 22.5316 353.448 24.0316 352.448 24.0316L365.448 28.5316C365.114 27.5316 363.948 24.8316 361.948 22.0316Z" fill="#2B3152"/>
<path d="M358.448 30.5316C361.648 30.5316 364.448 29.1983 365.448 28.5316L352.448 24.0316C351.614 24.3649 350.148 24.5316 348.948 24.5316C347.748 24.5316 345.781 26.5316 344.448 28.0316C346.948 27.865 352.048 27.7316 352.448 28.5316C352.848 29.3316 351.281 29.5316 350.448 29.5316C351.781 29.865 355.248 30.5316 358.448 30.5316Z" fill="#1D223C"/>
<path d="M345.974 43.5941C342.122 46.4236 338.358 48.8005 337.448 51.5316C336.734 53.672 336.595 58.7391 336.55 65.1215C336.549 65.1225 336.549 65.1243 336.548 65.1254C329.048 59.292 315.748 47.1318 322.948 47.5316C330.142 47.9313 341.301 45.261 345.974 43.5941Z" fill="#A49FA6"/>
<path d="M55.8763 95.8542C60.1456 99.2203 67.1147 103.934 73.5697 107.808C76.7952 109.744 79.8658 111.454 82.3861 112.674C83.6474 113.285 84.7483 113.762 85.6478 114.083C86.5884 114.418 87.1694 114.532 87.4476 114.532C88.3207 114.532 88.6064 114.317 88.6781 114.248C88.7416 114.186 88.8506 114.03 88.848 113.603C88.8421 112.664 88.2905 111.326 87.6703 110.318C87.2402 109.619 87.4518 108.705 88.1449 108.265C88.8382 107.826 89.7561 108.025 90.2045 108.713C91.4134 110.566 93.6126 113.55 96.2386 116.404C98.8903 119.286 101.855 121.9 104.582 123.173C105.961 123.816 106.736 123.869 107.106 123.8C107.361 123.754 107.507 123.643 107.641 123.344C107.807 122.973 107.898 122.383 107.864 121.618C107.831 120.877 107.686 120.096 107.502 119.433C107.288 118.661 107.719 117.857 108.48 117.607C109.241 117.357 110.064 117.749 110.349 118.498C110.983 120.162 112.239 122.869 113.911 125.487C115.606 128.139 117.616 130.518 119.703 131.736C120.419 132.153 120.661 133.072 120.244 133.788C119.826 134.503 118.907 134.745 118.192 134.328C115.479 132.746 113.155 129.875 111.383 127.102C110.94 126.409 110.525 125.71 110.14 125.024C109.633 125.867 108.82 126.535 107.649 126.751C106.389 126.983 104.933 126.648 103.313 125.891C100.041 124.364 96.7548 121.395 94.0316 118.435C93.1149 117.439 92.2497 116.426 91.4535 115.448C91.2908 115.782 91.0708 116.104 90.7738 116.394C89.9428 117.205 88.773 117.532 87.4476 117.532C86.6259 117.532 85.6371 117.265 84.639 116.909C83.5999 116.538 82.393 116.01 81.0785 115.374C78.4468 114.099 75.2918 112.341 72.0258 110.381C65.5359 106.486 58.4999 101.732 54.097 98.2702C54.6937 97.4336 55.2574 96.6034 55.7816 95.7868C55.8135 95.8082 55.8457 95.83 55.8763 95.8542Z" fill="#A49FA6"/>
<path d="M255.948 57.0318C250.281 50.0318 229.948 27.0316 180.948 31.0317" stroke="#A49FA6" stroke-width="3" stroke-linecap="round"/>
<path d="M9.5 147C13.1 144.2 22.8333 137 28.5 134C31.4999 133 33.5 136 33 137.5C32.3675 139.397 6.00008 152 6.50008 154C6.90008 155.6 9.5 155.5 12.5 155.5C11 156 5.50015 158 3.0001 156.5C1.25115 155.451 2.00001 154 2.50003 153.5C4.00003 151.5 5 150.5 9.5 147Z" fill="#242945"/>
</svg>
