<svg width="450" height="560" viewBox="0 0 450 560" fill="none" xmlns="http://www.w3.org/2000/svg">
<rect width="100" height="100" transform="translate(10 10)" fill="#928D95"/>
<path d="M26.5596 57.012V57.924H24.7996V64.5H23.7116V57.924H22.1436V57.012H23.7116V54.964C23.7116 53.268 24.5436 52.212 26.2556 52.212C26.5276 52.212 26.8796 52.244 27.1516 52.324L26.9596 53.284C26.7356 53.22 26.4956 53.172 26.2076 53.172C25.0396 53.172 24.7996 54.004 24.7996 55.092V57.012H26.5596ZM34.7503 60.756C34.7503 63.012 33.0863 64.692 30.7503 64.692C28.4303 64.692 26.7663 63.012 26.7663 60.756C26.7663 58.5 28.4303 56.82 30.7503 56.82C33.0863 56.82 34.7503 58.5 34.7503 60.756ZM33.5983 60.756C33.5983 59.076 32.4943 57.732 30.7503 57.732C29.0223 57.732 27.9183 59.076 27.9183 60.756C27.9183 62.436 29.0223 63.764 30.7503 63.764C32.4943 63.764 33.5983 62.436 33.5983 60.756ZM36.2916 58.66C36.2916 58.26 36.2756 57.524 36.2276 57.012H37.2676C37.2996 57.412 37.3316 57.972 37.3316 58.292H37.3636C37.7796 57.428 38.7076 56.82 39.7636 56.82C40.0356 56.82 40.2596 56.836 40.4836 56.9L40.3396 57.924C40.2116 57.876 39.8596 57.828 39.5716 57.828C38.4196 57.828 37.3796 58.66 37.3796 60.66V64.5H36.2916V58.66ZM41.5839 60.18H46.6879C46.6239 58.772 45.7599 57.732 44.2079 57.732C42.7519 57.732 41.6799 58.9 41.5839 60.18ZM47.7919 60.532C47.7919 60.676 47.7919 60.852 47.7759 61.044H41.5679C41.5999 62.548 42.7679 63.764 44.3039 63.764C45.4239 63.764 46.2879 63.14 46.7039 62.468L47.5199 63.108C46.6399 64.228 45.5359 64.692 44.3039 64.692C42.0799 64.692 40.4319 63.012 40.4319 60.756C40.4319 58.5 42.0799 56.82 44.2079 56.82C46.5599 56.82 47.7919 58.484 47.7919 60.532ZM48.9482 66.836L49.7322 66.004C50.3242 66.772 51.4602 67.38 52.5962 67.38C54.7402 67.38 55.5242 66.052 55.5242 64.436V63.028H55.4922C54.9162 63.956 53.7482 64.5 52.6602 64.5C50.3242 64.5 48.7882 62.884 48.7882 60.692C48.7882 58.564 50.3242 56.82 52.6602 56.82C53.7482 56.82 54.9002 57.348 55.4922 58.308H55.5242V57.012H56.6122V64.436C56.6122 66.068 55.8602 68.34 52.5482 68.34C51.1722 68.34 49.8282 67.764 48.9482 66.836ZM49.9402 60.66C49.9402 62.228 50.9642 63.572 52.7722 63.572C54.4522 63.572 55.6522 62.388 55.6522 60.66C55.6522 59.092 54.4522 57.732 52.7722 57.732C50.9642 57.732 49.9402 59.092 49.9402 60.66ZM58.6416 58.66C58.6416 58.26 58.6256 57.524 58.5776 57.012H59.6176C59.6496 57.412 59.6816 57.972 59.6816 58.292H59.7136C60.1296 57.428 61.0576 56.82 62.1136 56.82C62.3856 56.82 62.6096 56.836 62.8336 56.9L62.6896 57.924C62.5616 57.876 62.2096 57.828 61.9216 57.828C60.7696 57.828 59.7296 58.66 59.7296 60.66V64.5H58.6416V58.66ZM70.7659 60.756C70.7659 63.012 69.1019 64.692 66.7659 64.692C64.4459 64.692 62.7819 63.012 62.7819 60.756C62.7819 58.5 64.4459 56.82 66.7659 56.82C69.1019 56.82 70.7659 58.5 70.7659 60.756ZM69.6139 60.756C69.6139 59.076 68.5099 57.732 66.7659 57.732C65.0379 57.732 63.9339 59.076 63.9339 60.756C63.9339 62.436 65.0379 63.764 66.7659 63.764C68.5099 63.764 69.6139 62.436 69.6139 60.756ZM78.7872 64.5H77.7472C77.7152 64.1 77.6832 63.54 77.6832 63.22H77.6512C77.2352 64.084 76.1472 64.692 75.0912 64.692C73.1872 64.692 72.2432 63.46 72.2432 61.604V57.012H73.3312V61.156C73.3312 62.724 73.7952 63.78 75.3632 63.78C76.5152 63.78 77.6352 62.852 77.6352 60.852V57.012H78.7232V62.852C78.7232 63.252 78.7392 63.988 78.7872 64.5ZM80.7401 57.012H81.7801C81.8121 57.412 81.8441 57.972 81.8441 58.292H81.8761C82.2921 57.428 83.3801 56.82 84.4361 56.82C86.3401 56.82 87.2841 58.052 87.2841 59.908V64.5H86.1961V60.356C86.1961 58.788 85.7321 57.732 84.1641 57.732C83.0121 57.732 81.8921 58.66 81.8921 60.66V64.5H80.8041V58.66C80.8041 58.26 80.7881 57.524 80.7401 57.012ZM95.4609 63.236C94.8209 64.18 93.7009 64.692 92.6289 64.692C90.2929 64.692 88.7569 62.964 88.7569 60.756C88.7569 58.548 90.2929 56.82 92.6289 56.82C93.7009 56.82 94.8209 57.332 95.4609 58.308H95.4929V52.404H96.5809V64.5H95.4929V63.236H95.4609ZM89.9089 60.756C89.9089 62.42 90.9329 63.764 92.7409 63.764C94.4209 63.764 95.6209 62.468 95.6209 60.756C95.6209 59.044 94.4209 57.732 92.7409 57.732C90.9329 57.732 89.9089 59.092 89.9089 60.756Z" fill="white"/>
<rect x="120" y="10" width="100" height="100" fill="#A49FA6"/>
<rect x="230" y="10" width="100" height="100" fill="#BBB8BD"/>
<rect x="340" y="10" width="100" height="100" fill="#D4D2D5"/>
<rect width="100" height="100" transform="translate(10 120)" fill="#D9B638"/>
<path d="M39.9337 174.5V163.172H43.6937C46.5257 163.172 49.6457 165.06 49.6457 168.836C49.6457 172.612 46.5257 174.5 43.6937 174.5H39.9337ZM41.0857 164.196V173.476H43.3737C46.7817 173.476 48.4297 171.172 48.4297 168.836C48.4297 166.5 46.7817 164.196 43.3737 164.196H41.0857ZM51.7871 170.18H56.8911C56.8271 168.772 55.9631 167.732 54.4111 167.732C52.9551 167.732 51.8831 168.9 51.7871 170.18ZM57.9951 170.532C57.9951 170.676 57.9951 170.852 57.9791 171.044H51.7711C51.8031 172.548 52.9711 173.764 54.5071 173.764C55.6271 173.764 56.4911 173.14 56.9071 172.468L57.7231 173.108C56.8431 174.228 55.7391 174.692 54.5071 174.692C52.2831 174.692 50.6351 173.012 50.6351 170.756C50.6351 168.5 52.2831 166.82 54.4111 166.82C56.7631 166.82 57.9951 168.484 57.9951 170.532ZM59.4713 167.012H60.5113C60.5433 167.412 60.5753 167.972 60.5753 168.292H60.6073C61.0233 167.428 62.1113 166.82 63.1673 166.82C65.0713 166.82 66.0153 168.052 66.0153 169.908V174.5H64.9273V170.356C64.9273 168.788 64.4633 167.732 62.8953 167.732C61.7433 167.732 60.6233 168.66 60.6233 170.66V174.5H59.5353V168.66C59.5353 168.26 59.5193 167.524 59.4713 167.012ZM72.7522 169.908V169.668C72.7522 168.372 72.0482 167.732 70.7522 167.732C69.8722 167.732 69.0562 168.084 68.5282 168.612L67.9202 167.892C68.5282 167.284 69.5842 166.82 70.8642 166.82C72.4802 166.82 73.7762 167.716 73.7762 169.54V172.82C73.7762 173.396 73.8242 174.084 73.9042 174.5H72.9282C72.8642 174.132 72.8162 173.684 72.8162 173.284H72.7842C72.0962 174.276 71.2642 174.692 70.0642 174.692C68.9282 174.692 67.4722 174.084 67.4722 172.42C67.4722 170.116 70.0162 169.908 72.7522 169.908ZM72.7522 170.756H72.4322C70.6562 170.756 68.5922 170.948 68.5922 172.372C68.5922 173.444 69.5042 173.796 70.3522 173.796C71.8882 173.796 72.7522 172.644 72.7522 171.316V170.756ZM76.8991 162.404V174.5H75.8111V162.404H76.8991ZM80.1143 167.012V174.5H79.0263V167.012H80.1143ZM80.3383 164.132C80.3383 164.58 79.9543 164.9 79.5703 164.9C79.1863 164.9 78.8023 164.58 78.8023 164.132C78.8023 163.684 79.1863 163.364 79.5703 163.364C79.9543 163.364 80.3383 163.684 80.3383 164.132Z" fill="white"/>
<rect x="120" y="120" width="100" height="100" fill="#D95D39"/>
<rect x="230" y="120" width="100" height="100" fill="#D93838"/>
<rect width="100" height="100" transform="translate(10 230)" fill="#77D093"/>
<path d="M39.0076 273.172V278.26H39.0236L44.4156 273.172H46.0636L40.3516 278.308L46.3836 284.5H44.6876L39.0236 278.468H39.0076V284.5H37.8556V273.172H39.0076ZM53.9941 280.756C53.9941 283.012 52.3301 284.692 49.9941 284.692C47.6741 284.692 46.0101 283.012 46.0101 280.756C46.0101 278.5 47.6741 276.82 49.9941 276.82C52.3301 276.82 53.9941 278.5 53.9941 280.756ZM52.8421 280.756C52.8421 279.076 51.7381 277.732 49.9941 277.732C48.2661 277.732 47.1621 279.076 47.1621 280.756C47.1621 282.436 48.2661 283.764 49.9941 283.764C51.7381 283.764 52.8421 282.436 52.8421 280.756ZM55.4713 277.012H56.5113C56.5433 277.412 56.5753 277.972 56.5753 278.292H56.6073C57.0233 277.428 58.1113 276.82 59.1673 276.82C61.0713 276.82 62.0153 278.052 62.0153 279.908V284.5H60.9273V280.356C60.9273 278.788 60.4633 277.732 58.8953 277.732C57.7433 277.732 56.6233 278.66 56.6233 280.66V284.5H55.5353V278.66C55.5353 278.26 55.5193 277.524 55.4713 277.012ZM65.1362 277.012V284.5H64.0482V277.012H65.1362ZM65.3602 274.132C65.3602 274.58 64.9762 274.9 64.5922 274.9C64.2082 274.9 63.8242 274.58 63.8242 274.132C63.8242 273.684 64.2082 273.364 64.5922 273.364C64.9762 273.364 65.3602 273.684 65.3602 274.132ZM71.9522 279.908V279.668C71.9522 278.372 71.2482 277.732 69.9522 277.732C69.0722 277.732 68.2562 278.084 67.7282 278.612L67.1202 277.892C67.7282 277.284 68.7842 276.82 70.0642 276.82C71.6802 276.82 72.9762 277.716 72.9762 279.54V282.82C72.9762 283.396 73.0242 284.084 73.1042 284.5H72.1282C72.0642 284.132 72.0162 283.684 72.0162 283.284H71.9842C71.2962 284.276 70.4642 284.692 69.2642 284.692C68.1282 284.692 66.6722 284.084 66.6722 282.42C66.6722 280.116 69.2162 279.908 71.9522 279.908ZM71.9522 280.756H71.6322C69.8562 280.756 67.7922 280.948 67.7922 282.372C67.7922 283.444 68.7042 283.796 69.5522 283.796C71.0882 283.796 71.9522 282.644 71.9522 281.316V280.756ZM74.5951 286.836L75.3791 286.004C75.9711 286.772 77.1071 287.38 78.2431 287.38C80.3871 287.38 81.1711 286.052 81.1711 284.436V283.028H81.1391C80.5631 283.956 79.3951 284.5 78.3071 284.5C75.9711 284.5 74.4351 282.884 74.4351 280.692C74.4351 278.564 75.9711 276.82 78.3071 276.82C79.3951 276.82 80.5471 277.348 81.1391 278.308H81.1711V277.012H82.2591V284.436C82.2591 286.068 81.5071 288.34 78.1951 288.34C76.8191 288.34 75.4751 287.764 74.5951 286.836ZM75.5871 280.66C75.5871 282.228 76.6111 283.572 78.4191 283.572C80.0991 283.572 81.2991 282.388 81.2991 280.66C81.2991 279.092 80.0991 277.732 78.4191 277.732C76.6111 277.732 75.5871 279.092 75.5871 280.66Z" fill="white"/>
<rect x="120" y="230" width="100" height="100" fill="#0097BF"/>
<rect x="230" y="230" width="100" height="100" fill="#0086BE"/>
<rect width="100" height="100" transform="translate(10 340)" fill="#E6A4B5"/>
<path d="M39.4769 394.788C36.0849 394.788 35.2369 392.164 35.2369 390.276V383.172H36.3889V390.148C36.3889 391.972 37.1729 393.764 39.4769 393.764C41.7809 393.764 42.5649 391.972 42.5649 390.148V383.172H43.7169V390.276C43.7169 392.164 42.8689 394.788 39.4769 394.788ZM45.7323 387.012H46.7723C46.8043 387.412 46.8363 387.972 46.8363 388.292H46.8683C47.2843 387.428 48.3723 386.82 49.4283 386.82C51.3323 386.82 52.2763 388.052 52.2763 389.908V394.5H51.1883V390.356C51.1883 388.788 50.7243 387.732 49.1563 387.732C48.0043 387.732 46.8843 388.66 46.8843 390.66V394.5H45.7963V388.66C45.7963 388.26 45.7803 387.524 45.7323 387.012ZM60.7731 394.5H59.7331C59.7011 394.1 59.6691 393.54 59.6691 393.22H59.6371C59.2211 394.084 58.1331 394.692 57.0771 394.692C55.1731 394.692 54.2291 393.46 54.2291 391.604V387.012H55.3171V391.156C55.3171 392.724 55.7811 393.78 57.3491 393.78C58.5011 393.78 59.6211 392.852 59.6211 390.852V387.012H60.7091V392.852C60.7091 393.252 60.7251 393.988 60.7731 394.5ZM67.606 388.164L66.774 388.788C66.454 388.164 65.766 387.732 64.934 387.732C64.15 387.732 63.35 388.068 63.35 388.9C63.35 389.604 63.91 389.924 65.142 390.18C66.902 390.548 67.734 391.204 67.734 392.372C67.734 394.084 66.294 394.692 64.918 394.692C63.782 394.692 62.646 394.244 61.958 393.236L62.822 392.596C63.206 393.252 64.022 393.764 64.902 393.764C65.83 393.764 66.662 393.428 66.662 392.452C66.662 391.668 65.878 391.348 64.454 391.012C63.574 390.804 62.31 390.42 62.31 388.996C62.31 387.476 63.622 386.82 64.982 386.82C66.022 386.82 67.126 387.316 67.606 388.164ZM69.7074 390.18H74.8114C74.7474 388.772 73.8834 387.732 72.3314 387.732C70.8754 387.732 69.8034 388.9 69.7074 390.18ZM75.9154 390.532C75.9154 390.676 75.9154 390.852 75.8994 391.044H69.6914C69.7234 392.548 70.8914 393.764 72.4274 393.764C73.5474 393.764 74.4114 393.14 74.8274 392.468L75.6434 393.108C74.7634 394.228 73.6594 394.692 72.4274 394.692C70.2034 394.692 68.5554 393.012 68.5554 390.756C68.5554 388.5 70.2034 386.82 72.3314 386.82C74.6834 386.82 75.9154 388.484 75.9154 390.532ZM83.6156 393.236C82.9756 394.18 81.8556 394.692 80.7836 394.692C78.4476 394.692 76.9116 392.964 76.9116 390.756C76.9116 388.548 78.4476 386.82 80.7836 386.82C81.8556 386.82 82.9756 387.332 83.6156 388.308H83.6476V382.404H84.7356V394.5H83.6476V393.236H83.6156ZM78.0636 390.756C78.0636 392.42 79.0876 393.764 80.8956 393.764C82.5756 393.764 83.7756 392.468 83.7756 390.756C83.7756 389.044 82.5756 387.732 80.8956 387.732C79.0876 387.732 78.0636 389.092 78.0636 390.756Z" fill="white"/>
<rect x="120" y="340" width="100" height="100" fill="#867CCC"/>
<rect x="230" y="340" width="100" height="100" fill="#8769BD"/>
<rect width="100" height="100" transform="translate(10 450)" fill="#1D223C"/>
<path d="M20.5884 504.5V493.172H23.9644C25.6924 493.172 27.6124 493.796 27.6124 496.068C27.6124 497.252 26.8124 498.228 25.6124 498.5V498.532C27.0844 498.692 28.1724 499.716 28.1724 501.364C28.1724 503.252 26.5564 504.5 23.9484 504.5H20.5884ZM21.7404 494.164V498.132H24.0604C25.1644 498.132 26.4604 497.652 26.4604 496.148C26.4604 494.708 25.2284 494.164 23.7404 494.164H21.7404ZM21.7404 499.076V503.508H23.8844C25.5484 503.508 27.0044 502.884 27.0044 501.3C27.0044 499.812 25.9324 499.076 24.0924 499.076H21.7404ZM34.6162 499.908V499.668C34.6162 498.372 33.9122 497.732 32.6162 497.732C31.7362 497.732 30.9202 498.084 30.3922 498.612L29.7842 497.892C30.3922 497.284 31.4482 496.82 32.7282 496.82C34.3442 496.82 35.6402 497.716 35.6402 499.54V502.82C35.6402 503.396 35.6882 504.084 35.7682 504.5H34.7922C34.7282 504.132 34.6802 503.684 34.6802 503.284H34.6482C33.9602 504.276 33.1282 504.692 31.9282 504.692C30.7922 504.692 29.3362 504.084 29.3362 502.42C29.3362 500.116 31.8802 499.908 34.6162 499.908ZM34.6162 500.756H34.2962C32.5202 500.756 30.4562 500.948 30.4562 502.372C30.4562 503.444 31.3682 503.796 32.2162 503.796C33.7522 503.796 34.6162 502.644 34.6162 501.316V500.756ZM43.8831 498.116L43.0351 498.724C42.6831 498.148 41.9311 497.732 41.1151 497.732C39.3711 497.732 38.2511 499.044 38.2511 500.756C38.2511 502.452 39.3551 503.764 41.0991 503.764C42.0431 503.764 42.6991 503.364 43.1311 502.788L43.9471 503.396C43.3071 504.18 42.3951 504.692 41.0991 504.692C38.6831 504.692 37.0991 503.012 37.0991 500.756C37.0991 498.5 38.6831 496.82 41.0991 496.82C42.1071 496.82 43.2431 497.252 43.8831 498.116ZM45.9631 492.404V500.388H46.0111L49.4671 497.012H51.0351L47.2591 500.436L51.4191 504.5H49.8191L46.0111 500.564H45.9631V504.5H44.8751V492.404H45.9631ZM51.8154 506.836L52.5994 506.004C53.1914 506.772 54.3274 507.38 55.4634 507.38C57.6074 507.38 58.3914 506.052 58.3914 504.436V503.028H58.3594C57.7834 503.956 56.6154 504.5 55.5274 504.5C53.1914 504.5 51.6554 502.884 51.6554 500.692C51.6554 498.564 53.1914 496.82 55.5274 496.82C56.6154 496.82 57.7674 497.348 58.3594 498.308H58.3914V497.012H59.4794V504.436C59.4794 506.068 58.7274 508.34 55.4154 508.34C54.0394 508.34 52.6954 507.764 51.8154 506.836ZM52.8074 500.66C52.8074 502.228 53.8314 503.572 55.6394 503.572C57.3194 503.572 58.5194 502.388 58.5194 500.66C58.5194 499.092 57.3194 497.732 55.6394 497.732C53.8314 497.732 52.8074 499.092 52.8074 500.66ZM61.5087 498.66C61.5087 498.26 61.4927 497.524 61.4447 497.012H62.4847C62.5167 497.412 62.5487 497.972 62.5487 498.292H62.5807C62.9967 497.428 63.9247 496.82 64.9807 496.82C65.2527 496.82 65.4767 496.836 65.7007 496.9L65.5567 497.924C65.4287 497.876 65.0767 497.828 64.7887 497.828C63.6367 497.828 62.5967 498.66 62.5967 500.66V504.5H61.5087V498.66ZM73.6331 500.756C73.6331 503.012 71.9691 504.692 69.6331 504.692C67.3131 504.692 65.6491 503.012 65.6491 500.756C65.6491 498.5 67.3131 496.82 69.6331 496.82C71.9691 496.82 73.6331 498.5 73.6331 500.756ZM72.4811 500.756C72.4811 499.076 71.3771 497.732 69.6331 497.732C67.9051 497.732 66.8011 499.076 66.8011 500.756C66.8011 502.436 67.9051 503.764 69.6331 503.764C71.3771 503.764 72.4811 502.436 72.4811 500.756ZM81.6544 504.5H80.6144C80.5824 504.1 80.5504 503.54 80.5504 503.22H80.5184C80.1024 504.084 79.0144 504.692 77.9584 504.692C76.0544 504.692 75.1104 503.46 75.1104 501.604V497.012H76.1984V501.156C76.1984 502.724 76.6624 503.78 78.2304 503.78C79.3824 503.78 80.5024 502.852 80.5024 500.852V497.012H81.5904V502.852C81.5904 503.252 81.6064 503.988 81.6544 504.5ZM83.6072 497.012H84.6472C84.6792 497.412 84.7112 497.972 84.7112 498.292H84.7432C85.1592 497.428 86.2472 496.82 87.3032 496.82C89.2072 496.82 90.1512 498.052 90.1512 499.908V504.5H89.0632V500.356C89.0632 498.788 88.5992 497.732 87.0312 497.732C85.8792 497.732 84.7592 498.66 84.7592 500.66V504.5H83.6712V498.66C83.6712 498.26 83.6552 497.524 83.6072 497.012ZM98.3281 503.236C97.6881 504.18 96.5681 504.692 95.4961 504.692C93.1601 504.692 91.6241 502.964 91.6241 500.756C91.6241 498.548 93.1601 496.82 95.4961 496.82C96.5681 496.82 97.6881 497.332 98.3281 498.308H98.3601V492.404H99.4481V504.5H98.3601V503.236H98.3281ZM92.7761 500.756C92.7761 502.42 93.8001 503.764 95.6081 503.764C97.2881 503.764 98.4881 502.468 98.4881 500.756C98.4881 499.044 97.2881 497.732 95.6081 497.732C93.8001 497.732 92.7761 499.092 92.7761 500.756Z" fill="white"/>
<rect x="120" y="450" width="100" height="100" fill="#242945"/>
<rect x="230" y="450" width="100" height="100" fill="#2B3152"/>
<rect x="340" y="450" width="100" height="100" fill="#31385E"/>
</svg>
