<svg width="642" height="394" viewBox="0 0 642 394" fill="none" xmlns="http://www.w3.org/2000/svg">
<g clip-path="url(#clip0_26_111)">
<mask id="mask0_26_111" style="mask-type:alpha" maskUnits="userSpaceOnUse" x="0" y="0" width="642" height="197">
<rect width="642" height="197" fill="#D9D9D9"/>
</mask>
<g mask="url(#mask0_26_111)">
<path d="M0 197L160.585 35.9115L199.794 75.2431L274.631 0.171007L360.038 85.8455L445.616 0L642 197L481.415 358.089L442.206 318.757L367.369 393.829L281.962 308.155L196.384 394L0 197Z" fill="#0086BE"/>
<path d="M445.616 45.6188L382.776 108.655C376.745 114.704 368.566 118.102 360.038 118.102C351.51 118.102 343.331 114.704 337.3 108.655L274.631 45.7898L222.532 98.0524C216.501 104.101 208.322 107.499 199.794 107.499C191.266 107.499 183.087 104.101 177.056 98.0524L160.585 81.5302L45.4762 197L196.385 348.381L259.224 285.345C265.255 279.296 273.434 275.898 281.962 275.898C290.49 275.898 298.669 279.296 304.7 285.345L367.369 348.21L419.468 295.948C425.499 289.899 433.678 286.501 442.206 286.501C450.734 286.501 458.913 289.899 464.944 295.948L481.415 312.47L596 197L445.616 45.6188Z" fill="#0097BF"/>
<path d="M445.616 92.7419L406.264 132.216C394.004 144.513 377.376 151.421 360.038 151.421C342.701 151.421 326.073 144.513 313.812 132.216L274.631 92.9129L246.02 121.614C234.965 132.627 220.353 139.318 204.816 140.482C189.279 141.645 173.839 137.205 161.276 127.96L92 197L196.384 301.258L235.736 261.784C247.997 249.487 264.624 242.579 281.962 242.579C299.299 242.579 315.927 249.487 328.188 261.784L367.369 301.087L395.98 272.386C407.035 261.373 421.647 254.682 437.184 253.518C452.721 252.355 468.161 256.795 480.724 266.04L549 197L445.616 92.7419Z" fill="#77D093"/>
</g>
<path d="M549 197L445.056 301.258L405.705 261.784C393.444 249.487 376.816 242.579 359.479 242.579C342.141 242.579 325.514 249.487 313.253 261.784L274.072 301.087L245.461 272.386C234.406 261.373 219.794 254.682 204.257 253.518C188.72 252.355 173.279 256.795 160.717 266.04L92 197H549Z" fill="#31385E"/>
<path d="M596 197L445.056 348.381L382.217 285.345C376.186 279.296 368.007 275.898 359.479 275.898C350.951 275.898 342.772 279.296 336.741 285.345L274.072 348.21L221.973 295.948C215.942 289.899 207.763 286.501 199.235 286.501C190.706 286.501 182.527 289.899 176.496 295.948L160.026 312.47L45.5 197H91.9644L160.717 266.04C173.279 256.795 188.72 252.355 204.257 253.518C219.794 254.682 234.406 261.373 245.461 272.386L274.072 301.087L313.253 261.784C325.514 249.487 342.141 242.579 359.479 242.579C376.816 242.579 393.444 249.487 405.705 261.784L445.056 301.258L548.989 197H596Z" fill="#2B3152"/>
<path d="M6.10352e-05 197H45.5L160.026 312.47L176.496 295.948C182.527 289.899 190.706 286.501 199.235 286.501C207.763 286.501 215.942 289.899 221.973 295.948L274.072 348.21L336.741 285.345C342.772 279.296 350.951 275.898 359.479 275.898C368.007 275.898 376.186 279.296 382.217 285.345L445.056 348.381L596 197H642L445.056 394L359.479 308.155L274.072 393.829L199.235 318.757L160.026 358.089L6.10352e-05 197Z" fill="#242945"/>
</g>
<mask id="mask1_26_111" style="mask-type:alpha" maskUnits="userSpaceOnUse" x="91" y="197" width="458" height="105">
<path d="M548.5 197L444.556 301.258L405.205 261.784C392.944 249.487 376.316 242.579 358.979 242.579C341.641 242.579 325.014 249.487 312.753 261.784L273.572 301.087L244.961 272.386C233.906 261.373 219.294 254.682 203.757 253.518C188.22 252.355 172.779 256.795 160.217 266.04L91.5 197H548.5Z" fill="#31385E"/>
</mask>
<g mask="url(#mask1_26_111)">
<path d="M202.98 263.368C186.868 263.368 182.84 250.904 182.84 241.936V208.192H188.312V241.328C188.312 249.992 192.036 258.504 202.98 258.504C213.924 258.504 217.648 249.992 217.648 241.328V208.192H223.12V241.936C223.12 250.904 219.092 263.368 202.98 263.368ZM238.773 208.192V262H233.301V208.192H238.773ZM279.84 213.056V262H274.368V213.056H256.356V208.192H297.852V213.056H279.84ZM329.894 244.216C329.894 254.932 321.99 262.912 310.894 262.912C299.874 262.912 291.97 254.932 291.97 244.216C291.97 233.5 299.874 225.52 310.894 225.52C321.99 225.52 329.894 233.5 329.894 244.216ZM324.422 244.216C324.422 236.236 319.178 229.852 310.894 229.852C302.686 229.852 297.442 236.236 297.442 244.216C297.442 252.196 302.686 258.504 310.894 258.504C319.178 258.504 324.422 252.196 324.422 244.216ZM372.555 244.216C372.555 254.932 364.651 262.912 353.555 262.912C342.535 262.912 334.631 254.932 334.631 244.216C334.631 233.5 342.535 225.52 353.555 225.52C364.651 225.52 372.555 233.5 372.555 244.216ZM367.083 244.216C367.083 236.236 361.839 229.852 353.555 229.852C345.347 229.852 340.103 236.236 340.103 244.216C340.103 252.196 345.347 258.504 353.555 258.504C361.839 258.504 367.083 252.196 367.083 244.216ZM385.196 204.544V262H380.028V204.544H385.196ZM400.544 204.544V242.468H400.772L417.188 226.432H424.636L406.7 242.696L426.46 262H418.86L400.772 243.304H400.544V262H395.376V204.544H400.544ZM435.411 226.432V262H430.243V226.432H435.411ZM436.475 212.752C436.475 214.88 434.651 216.4 432.827 216.4C431.003 216.4 429.179 214.88 429.179 212.752C429.179 210.624 431.003 209.104 432.827 209.104C434.651 209.104 436.475 210.624 436.475 212.752ZM461.403 226.432V230.764H451.371V251.512C451.371 256.832 453.575 258.048 456.691 258.048C458.135 258.048 459.807 257.592 461.175 256.908L461.403 261.392C459.579 262.076 457.679 262.456 455.323 262.456C451.523 262.456 446.203 260.784 446.203 252.956V230.764H438.831V226.432H446.203V216.4H451.371V226.432H461.403Z" fill="#D4D2D5"/>
</g>
<mask id="mask2_26_111" style="mask-type:alpha" maskUnits="userSpaceOnUse" x="45" y="197" width="551" height="152">
<path d="M595.5 197L444.556 348.381L381.717 285.345C375.686 279.296 367.507 275.898 358.979 275.898C350.451 275.898 342.272 279.296 336.241 285.345L273.572 348.21L221.473 295.948C215.442 289.899 207.263 286.501 198.735 286.501C190.206 286.501 182.027 289.899 175.996 295.948L159.526 312.47L45 197H91.4644L160.217 266.04C172.779 256.795 188.22 252.355 203.757 253.518C219.294 254.682 233.906 261.373 244.961 272.386L273.572 301.087L312.753 261.784C325.014 249.487 341.641 242.579 358.979 242.579C376.316 242.579 392.944 249.487 405.205 261.784L444.556 301.258L548.489 197H595.5Z" fill="#2B3152"/>
</mask>
<g mask="url(#mask2_26_111)">
<path d="M202.98 263.368C186.868 263.368 182.84 250.904 182.84 241.936V208.192H188.312V241.328C188.312 249.992 192.036 258.504 202.98 258.504C213.924 258.504 217.648 249.992 217.648 241.328V208.192H223.12V241.936C223.12 250.904 219.092 263.368 202.98 263.368ZM238.773 208.192V262H233.301V208.192H238.773ZM279.84 213.056V262H274.368V213.056H256.356V208.192H297.852V213.056H279.84ZM329.894 244.216C329.894 254.932 321.99 262.912 310.894 262.912C299.874 262.912 291.97 254.932 291.97 244.216C291.97 233.5 299.874 225.52 310.894 225.52C321.99 225.52 329.894 233.5 329.894 244.216ZM324.422 244.216C324.422 236.236 319.178 229.852 310.894 229.852C302.686 229.852 297.442 236.236 297.442 244.216C297.442 252.196 302.686 258.504 310.894 258.504C319.178 258.504 324.422 252.196 324.422 244.216ZM372.555 244.216C372.555 254.932 364.651 262.912 353.555 262.912C342.535 262.912 334.631 254.932 334.631 244.216C334.631 233.5 342.535 225.52 353.555 225.52C364.651 225.52 372.555 233.5 372.555 244.216ZM367.083 244.216C367.083 236.236 361.839 229.852 353.555 229.852C345.347 229.852 340.103 236.236 340.103 244.216C340.103 252.196 345.347 258.504 353.555 258.504C361.839 258.504 367.083 252.196 367.083 244.216ZM385.196 204.544V262H380.028V204.544H385.196ZM400.544 204.544V242.468H400.772L417.188 226.432H424.636L406.7 242.696L426.46 262H418.86L400.772 243.304H400.544V262H395.376V204.544H400.544ZM435.411 226.432V262H430.243V226.432H435.411ZM436.475 212.752C436.475 214.88 434.651 216.4 432.827 216.4C431.003 216.4 429.179 214.88 429.179 212.752C429.179 210.624 431.003 209.104 432.827 209.104C434.651 209.104 436.475 210.624 436.475 212.752ZM461.403 226.432V230.764H451.371V251.512C451.371 256.832 453.575 258.048 456.691 258.048C458.135 258.048 459.807 257.592 461.175 256.908L461.403 261.392C459.579 262.076 457.679 262.456 455.323 262.456C451.523 262.456 446.203 260.784 446.203 252.956V230.764H438.831V226.432H446.203V216.4H451.371V226.432H461.403Z" fill="#BBB8BD"/>
</g>
<mask id="mask3_26_111" style="mask-type:alpha" maskUnits="userSpaceOnUse" x="0" y="0" width="642" height="394">
<path d="M0 197L160.585 35.9115L199.794 75.2431L274.631 0.171007L360.038 85.8455L445.616 0L642 197L481.415 358.089L442.206 318.757L367.369 393.829L281.962 308.155L196.384 394L0 197Z" fill="#D93838"/>
</mask>
<g mask="url(#mask3_26_111)">
<path d="M162.8 168V97.2H175.4V127.8H175.7L205.3 97.2H222.3L189.2 129.9L224.5 168H206.8L175.7 132.5H175.4V168H162.8ZM225.318 143.8C225.318 128.7 236.918 118.6 251.418 118.6C265.918 118.6 277.518 128.7 277.518 143.8C277.518 158.9 265.918 169.4 251.418 169.4C236.918 169.4 225.318 158.9 225.318 143.8ZM237.518 143.8C237.518 151.3 241.918 159.4 251.418 159.4C260.918 159.4 265.318 151.3 265.318 143.8C265.318 136.3 260.918 128.4 251.418 128.4C241.918 128.4 237.518 136.3 237.518 143.8ZM289.153 168V120H300.553V127.7H300.753C302.853 122.9 308.553 118.6 315.653 118.6C328.153 118.6 333.353 128.2 333.353 138V168H321.353V141.4C321.353 135.7 320.053 128.6 312.353 128.6C304.753 128.6 301.153 135.2 301.153 141.6V168H289.153ZM347.556 168V120H359.556V168H347.556ZM345.856 103.7C345.856 99.9 349.056 96.5 353.456 96.5C357.856 96.5 361.256 99.6 361.256 103.7C361.256 107.8 357.856 110.9 353.456 110.9C349.056 110.9 345.856 107.5 345.856 103.7ZM403.914 168V161.9H403.614C401.214 166.1 395.514 169.2 388.714 169.2C381.014 169.2 370.714 165.5 370.714 154.3C370.714 140 388.714 138 403.714 138V136.8C403.714 130.9 398.714 128 392.714 128C387.614 128 382.714 130.4 379.614 133.5L373.414 126.2C378.814 121.2 386.414 118.6 393.714 118.6C410.914 118.6 415.114 129.2 415.114 138.8V168H403.914ZM403.714 147.8V146.1H401.014C393.414 146.1 382.714 147 382.714 154.1C382.714 158.7 387.014 160.1 391.114 160.1C399.314 160.1 403.714 155.4 403.714 147.8ZM466.495 120H477.895V163.7C477.895 181 469.495 192 450.795 192C442.995 192 433.195 189.2 426.995 184.1L433.895 174.8C438.495 179.2 444.695 181.6 450.695 181.6C462.295 181.6 465.895 174.6 465.895 165.1V161.6H465.695C462.195 166.3 456.595 168.8 449.995 168.8C435.595 168.8 426.295 157.4 426.295 143.8C426.295 129.9 435.295 118.6 449.795 118.6C456.495 118.6 462.795 121.4 466.295 127.2H466.495V120ZM452.295 128.4C443.595 128.4 438.495 135.2 438.495 143.7C438.495 151.3 443.595 158.9 452.195 158.9C461.095 158.9 466.495 151.7 466.495 143.7C466.495 135.4 460.995 128.4 452.295 128.4Z" fill="#31385E"/>
</g>
<mask id="mask4_26_111" style="mask-type:alpha" maskUnits="userSpaceOnUse" x="45" y="45" width="551" height="304">
<path d="M445.616 45.6188L382.776 108.655C376.745 114.704 368.566 118.102 360.038 118.102C351.51 118.102 343.331 114.704 337.3 108.655L274.631 45.7898L222.532 98.0524C216.501 104.101 208.322 107.499 199.794 107.499C191.266 107.499 183.087 104.101 177.056 98.0524L160.585 81.5302L45.4762 197L196.385 348.381L259.224 285.345C265.255 279.296 273.434 275.898 281.962 275.898C290.49 275.898 298.669 279.296 304.7 285.345L367.369 348.21L419.468 295.948C425.499 289.899 433.678 286.501 442.206 286.501C450.734 286.501 458.913 289.899 464.944 295.948L481.415 312.47L596 197L445.616 45.6188Z" fill="#D95D39"/>
</mask>
<g mask="url(#mask4_26_111)">
<path d="M162.8 168V97.2H175.4V127.8H175.7L205.3 97.2H222.3L189.2 129.9L224.5 168H206.8L175.7 132.5H175.4V168H162.8ZM225.318 143.8C225.318 128.7 236.918 118.6 251.418 118.6C265.918 118.6 277.518 128.7 277.518 143.8C277.518 158.9 265.918 169.4 251.418 169.4C236.918 169.4 225.318 158.9 225.318 143.8ZM237.518 143.8C237.518 151.3 241.918 159.4 251.418 159.4C260.918 159.4 265.318 151.3 265.318 143.8C265.318 136.3 260.918 128.4 251.418 128.4C241.918 128.4 237.518 136.3 237.518 143.8ZM289.153 168V120H300.553V127.7H300.753C302.853 122.9 308.553 118.6 315.653 118.6C328.153 118.6 333.353 128.2 333.353 138V168H321.353V141.4C321.353 135.7 320.053 128.6 312.353 128.6C304.753 128.6 301.153 135.2 301.153 141.6V168H289.153ZM347.556 168V120H359.556V168H347.556ZM345.856 103.7C345.856 99.9 349.056 96.5 353.456 96.5C357.856 96.5 361.256 99.6 361.256 103.7C361.256 107.8 357.856 110.9 353.456 110.9C349.056 110.9 345.856 107.5 345.856 103.7ZM403.914 168V161.9H403.614C401.214 166.1 395.514 169.2 388.714 169.2C381.014 169.2 370.714 165.5 370.714 154.3C370.714 140 388.714 138 403.714 138V136.8C403.714 130.9 398.714 128 392.714 128C387.614 128 382.714 130.4 379.614 133.5L373.414 126.2C378.814 121.2 386.414 118.6 393.714 118.6C410.914 118.6 415.114 129.2 415.114 138.8V168H403.914ZM403.714 147.8V146.1H401.014C393.414 146.1 382.714 147 382.714 154.1C382.714 158.7 387.014 160.1 391.114 160.1C399.314 160.1 403.714 155.4 403.714 147.8ZM466.495 120H477.895V163.7C477.895 181 469.495 192 450.795 192C442.995 192 433.195 189.2 426.995 184.1L433.895 174.8C438.495 179.2 444.695 181.6 450.695 181.6C462.295 181.6 465.895 174.6 465.895 165.1V161.6H465.695C462.195 166.3 456.595 168.8 449.995 168.8C435.595 168.8 426.295 157.4 426.295 143.8C426.295 129.9 435.295 118.6 449.795 118.6C456.495 118.6 462.795 121.4 466.295 127.2H466.495V120ZM452.295 128.4C443.595 128.4 438.495 135.2 438.495 143.7C438.495 151.3 443.595 158.9 452.195 158.9C461.095 158.9 466.495 151.7 466.495 143.7C466.495 135.4 460.995 128.4 452.295 128.4Z" fill="#2B3152"/>
</g>
<mask id="mask5_26_111" style="mask-type:alpha" maskUnits="userSpaceOnUse" x="92" y="92" width="457" height="210">
<path d="M445.616 92.7419L406.264 132.216C394.004 144.513 377.376 151.421 360.038 151.421C342.701 151.421 326.073 144.513 313.812 132.216L274.631 92.9129L246.02 121.614C234.965 132.627 220.353 139.318 204.816 140.482C189.279 141.645 173.839 137.205 161.276 127.96L92 197L196.384 301.258L235.736 261.784C247.997 249.487 264.624 242.579 281.962 242.579C299.299 242.579 315.927 249.487 328.188 261.784L367.369 301.087L395.98 272.386C407.035 261.373 421.647 254.682 437.184 253.518C452.721 252.355 468.161 256.795 480.724 266.04L549 197L445.616 92.7419Z" fill="#D9B638"/>
</mask>
<g mask="url(#mask5_26_111)">
<path d="M162.8 168V97.2H175.4V127.8H175.7L205.3 97.2H222.3L189.2 129.9L224.5 168H206.8L175.7 132.5H175.4V168H162.8ZM225.318 143.8C225.318 128.7 236.918 118.6 251.418 118.6C265.918 118.6 277.518 128.7 277.518 143.8C277.518 158.9 265.918 169.4 251.418 169.4C236.918 169.4 225.318 158.9 225.318 143.8ZM237.518 143.8C237.518 151.3 241.918 159.4 251.418 159.4C260.918 159.4 265.318 151.3 265.318 143.8C265.318 136.3 260.918 128.4 251.418 128.4C241.918 128.4 237.518 136.3 237.518 143.8ZM289.153 168V120H300.553V127.7H300.753C302.853 122.9 308.553 118.6 315.653 118.6C328.153 118.6 333.353 128.2 333.353 138V168H321.353V141.4C321.353 135.7 320.053 128.6 312.353 128.6C304.753 128.6 301.153 135.2 301.153 141.6V168H289.153ZM347.556 168V120H359.556V168H347.556ZM345.856 103.7C345.856 99.9 349.056 96.5 353.456 96.5C357.856 96.5 361.256 99.6 361.256 103.7C361.256 107.8 357.856 110.9 353.456 110.9C349.056 110.9 345.856 107.5 345.856 103.7ZM403.914 168V161.9H403.614C401.214 166.1 395.514 169.2 388.714 169.2C381.014 169.2 370.714 165.5 370.714 154.3C370.714 140 388.714 138 403.714 138V136.8C403.714 130.9 398.714 128 392.714 128C387.614 128 382.714 130.4 379.614 133.5L373.414 126.2C378.814 121.2 386.414 118.6 393.714 118.6C410.914 118.6 415.114 129.2 415.114 138.8V168H403.914ZM403.714 147.8V146.1H401.014C393.414 146.1 382.714 147 382.714 154.1C382.714 158.7 387.014 160.1 391.114 160.1C399.314 160.1 403.714 155.4 403.714 147.8ZM466.495 120H477.895V163.7C477.895 181 469.495 192 450.795 192C442.995 192 433.195 189.2 426.995 184.1L433.895 174.8C438.495 179.2 444.695 181.6 450.695 181.6C462.295 181.6 465.895 174.6 465.895 165.1V161.6H465.695C462.195 166.3 456.595 168.8 449.995 168.8C435.595 168.8 426.295 157.4 426.295 143.8C426.295 129.9 435.295 118.6 449.795 118.6C456.495 118.6 462.795 121.4 466.295 127.2H466.495V120ZM452.295 128.4C443.595 128.4 438.495 135.2 438.495 143.7C438.495 151.3 443.595 158.9 452.195 158.9C461.095 158.9 466.495 151.7 466.495 143.7C466.495 135.4 460.995 128.4 452.295 128.4Z" fill="#242945"/>
</g>
<defs>
<clipPath id="clip0_26_111">
<rect width="642" height="394" fill="white"/>
</clipPath>
</defs>
</svg>
