<svg width="642" height="394" viewBox="0 0 642 394" fill="none" xmlns="http://www.w3.org/2000/svg">
<g clip-path="url(#clip0_26_77)">
<mask id="mask0_26_77" style="mask-type:alpha" maskUnits="userSpaceOnUse" x="0" y="0" width="642" height="197">
<rect width="642" height="197" fill="#D9D9D9"/>
</mask>
<g mask="url(#mask0_26_77)">
<path d="M0 197L160.585 35.9115L199.794 75.2431L274.631 0.171007L360.038 85.8455L445.616 0L642 197L481.415 358.089L442.206 318.757L367.369 393.829L281.962 308.155L196.384 394L0 197Z" fill="#D93838"/>
<path d="M445.616 45.6188L382.776 108.655C376.745 114.704 368.566 118.102 360.038 118.102C351.51 118.102 343.331 114.704 337.3 108.655L274.631 45.7898L222.532 98.0524C216.501 104.101 208.322 107.499 199.794 107.499C191.266 107.499 183.087 104.101 177.056 98.0524L160.585 81.5302L45.4762 197L196.385 348.381L259.224 285.345C265.255 279.296 273.434 275.898 281.962 275.898C290.49 275.898 298.669 279.296 304.7 285.345L367.369 348.21L419.468 295.948C425.499 289.899 433.678 286.501 442.206 286.501C450.734 286.501 458.913 289.899 464.944 295.948L481.415 312.47L596 197L445.616 45.6188Z" fill="#D95D39"/>
<path d="M445.616 92.7419L406.264 132.216C394.004 144.513 377.376 151.421 360.038 151.421C342.701 151.421 326.073 144.513 313.812 132.216L274.631 92.9129L246.02 121.614C234.965 132.627 220.353 139.318 204.816 140.482C189.279 141.645 173.839 137.205 161.276 127.96L92 197L196.384 301.258L235.736 261.784C247.997 249.487 264.624 242.579 281.962 242.579C299.299 242.579 315.927 249.487 328.188 261.784L367.369 301.087L395.98 272.386C407.035 261.373 421.647 254.682 437.184 253.518C452.721 252.355 468.161 256.795 480.724 266.04L549 197L445.616 92.7419Z" fill="#D9B638"/>
</g>
<path d="M549 197L445.056 301.258L405.705 261.784C393.444 249.487 376.816 242.579 359.479 242.579C342.141 242.579 325.514 249.487 313.253 261.784L274.072 301.087L245.461 272.386C234.406 261.373 219.794 254.682 204.257 253.518C188.72 252.355 173.279 256.795 160.717 266.04L92 197H549Z" fill="#31385E"/>
<path d="M596 197L445.056 348.381L382.217 285.345C376.186 279.296 368.007 275.898 359.479 275.898C350.951 275.898 342.772 279.296 336.741 285.345L274.072 348.21L221.973 295.948C215.942 289.899 207.763 286.501 199.235 286.501C190.706 286.501 182.527 289.899 176.496 295.948L160.026 312.47L45.5 197H91.9644L160.717 266.04C173.279 256.795 188.72 252.355 204.257 253.518C219.794 254.682 234.406 261.373 245.461 272.386L274.072 301.087L313.253 261.784C325.514 249.487 342.141 242.579 359.479 242.579C376.816 242.579 393.444 249.487 405.705 261.784L445.056 301.258L548.989 197H596Z" fill="#2B3152"/>
<path d="M6.10352e-05 197H45.5L160.026 312.47L176.496 295.948C182.527 289.899 190.706 286.501 199.235 286.501C207.763 286.501 215.942 289.899 221.973 295.948L274.072 348.21L336.741 285.345C342.772 279.296 350.951 275.898 359.479 275.898C368.007 275.898 376.186 279.296 382.217 285.345L445.056 348.381L596 197H642L445.056 394L359.479 308.155L274.072 393.829L199.235 318.757L160.026 358.089L6.10352e-05 197Z" fill="#242945"/>
</g>
<mask id="mask1_26_77" style="mask-type:alpha" maskUnits="userSpaceOnUse" x="91" y="197" width="458" height="105">
<path d="M548.5 197L444.556 301.258L405.205 261.784C392.944 249.487 376.316 242.579 358.979 242.579C341.641 242.579 325.014 249.487 312.753 261.784L273.572 301.087L244.961 272.386C233.906 261.373 219.294 254.682 203.757 253.518C188.22 252.355 172.779 256.795 160.217 266.04L91.5 197H548.5Z" fill="#31385E"/>
</mask>
<g mask="url(#mask1_26_77)">
<path d="M177.38 208.944L191.73 258.882H191.894L206.408 208.944H213.46L227.974 258.882H228.138L242.324 208.944H248.556L231.418 267H224.53L209.934 217.144H209.77L195.174 267H188.286L171.148 208.944H177.38ZM274.185 243.466V242.236C274.185 235.594 270.577 232.314 263.935 232.314C259.425 232.314 255.243 234.118 252.537 236.824L249.421 233.134C252.537 230.018 257.949 227.64 264.509 227.64C272.791 227.64 279.433 232.232 279.433 241.58V258.39C279.433 261.342 279.679 264.868 280.089 267H275.087C274.759 265.114 274.513 262.818 274.513 260.768H274.349C270.823 265.852 266.559 267.984 260.409 267.984C254.587 267.984 247.125 264.868 247.125 256.34C247.125 244.532 260.163 243.466 274.185 243.466ZM274.185 247.812H272.545C263.443 247.812 252.865 248.796 252.865 256.094C252.865 261.588 257.539 263.392 261.885 263.392C269.757 263.392 274.185 257.488 274.185 250.682V247.812ZM289.862 228.624L302.9 261.014H303.064L314.954 228.624H321.022L301.916 276.922C299.62 282.826 296.504 286.68 289.862 286.68C288.222 286.68 286.5 286.516 284.86 286.188L285.434 281.104C286.664 281.514 288.058 281.76 289.534 281.76C293.306 281.76 295.274 279.3 296.914 274.954L300.03 266.918L283.63 228.624H289.862ZM331.377 205.008V267H325.801V205.008H331.377ZM366.387 243.466V242.236C366.387 235.594 362.779 232.314 356.137 232.314C351.627 232.314 347.445 234.118 344.739 236.824L341.623 233.134C344.739 230.018 350.151 227.64 356.711 227.64C364.993 227.64 371.635 232.232 371.635 241.58V258.39C371.635 261.342 371.881 264.868 372.291 267H367.289C366.961 265.114 366.715 262.818 366.715 260.768H366.551C363.025 265.852 358.761 267.984 352.611 267.984C346.789 267.984 339.327 264.868 339.327 256.34C339.327 244.532 352.365 243.466 366.387 243.466ZM366.387 247.812H364.747C355.645 247.812 345.067 248.796 345.067 256.094C345.067 261.588 349.741 263.392 354.087 263.392C361.959 263.392 366.387 257.488 366.387 250.682V247.812ZM381.572 228.624H386.902C387.066 230.674 387.23 233.544 387.23 235.184H387.394C389.526 230.756 395.102 227.64 400.514 227.64C410.272 227.64 415.11 233.954 415.11 243.466V267H409.534V245.762C409.534 237.726 407.156 232.314 399.12 232.314C393.216 232.314 387.476 237.07 387.476 247.32V267H381.9V237.07C381.9 235.02 381.818 231.248 381.572 228.624ZM457.016 260.522C453.736 265.36 447.996 267.984 442.502 267.984C430.53 267.984 422.658 259.128 422.658 247.812C422.658 236.496 430.53 227.64 442.502 227.64C447.996 227.64 453.736 230.264 457.016 235.266H457.18V205.008H462.756V267H457.18V260.522H457.016ZM428.562 247.812C428.562 256.34 433.81 263.228 443.076 263.228C451.686 263.228 457.836 256.586 457.836 247.812C457.836 239.038 451.686 232.314 443.076 232.314C433.81 232.314 428.562 239.284 428.562 247.812Z" fill="#D4D2D5"/>
</g>
<mask id="mask2_26_77" style="mask-type:alpha" maskUnits="userSpaceOnUse" x="45" y="197" width="551" height="152">
<path d="M595.5 197L444.556 348.381L381.717 285.345C375.686 279.296 367.507 275.898 358.979 275.898C350.451 275.898 342.272 279.296 336.241 285.345L273.572 348.21L221.473 295.948C215.442 289.899 207.263 286.501 198.735 286.501C190.206 286.501 182.027 289.899 175.996 295.948L159.526 312.47L45 197H91.4644L160.217 266.04C172.779 256.795 188.22 252.355 203.757 253.518C219.294 254.682 233.906 261.373 244.961 272.386L273.572 301.087L312.753 261.784C325.014 249.487 341.641 242.579 358.979 242.579C376.316 242.579 392.944 249.487 405.205 261.784L444.556 301.258L548.489 197H595.5Z" fill="#2B3152"/>
</mask>
<g mask="url(#mask2_26_77)">
<path d="M177.38 208.944L191.73 258.882H191.894L206.408 208.944H213.46L227.974 258.882H228.138L242.324 208.944H248.556L231.418 267H224.53L209.934 217.144H209.77L195.174 267H188.286L171.148 208.944H177.38ZM274.185 243.466V242.236C274.185 235.594 270.577 232.314 263.935 232.314C259.425 232.314 255.243 234.118 252.537 236.824L249.421 233.134C252.537 230.018 257.949 227.64 264.509 227.64C272.791 227.64 279.433 232.232 279.433 241.58V258.39C279.433 261.342 279.679 264.868 280.089 267H275.087C274.759 265.114 274.513 262.818 274.513 260.768H274.349C270.823 265.852 266.559 267.984 260.409 267.984C254.587 267.984 247.125 264.868 247.125 256.34C247.125 244.532 260.163 243.466 274.185 243.466ZM274.185 247.812H272.545C263.443 247.812 252.865 248.796 252.865 256.094C252.865 261.588 257.539 263.392 261.885 263.392C269.757 263.392 274.185 257.488 274.185 250.682V247.812ZM289.862 228.624L302.9 261.014H303.064L314.954 228.624H321.022L301.916 276.922C299.62 282.826 296.504 286.68 289.862 286.68C288.222 286.68 286.5 286.516 284.86 286.188L285.434 281.104C286.664 281.514 288.058 281.76 289.534 281.76C293.306 281.76 295.274 279.3 296.914 274.954L300.03 266.918L283.63 228.624H289.862ZM331.377 205.008V267H325.801V205.008H331.377ZM366.387 243.466V242.236C366.387 235.594 362.779 232.314 356.137 232.314C351.627 232.314 347.445 234.118 344.739 236.824L341.623 233.134C344.739 230.018 350.151 227.64 356.711 227.64C364.993 227.64 371.635 232.232 371.635 241.58V258.39C371.635 261.342 371.881 264.868 372.291 267H367.289C366.961 265.114 366.715 262.818 366.715 260.768H366.551C363.025 265.852 358.761 267.984 352.611 267.984C346.789 267.984 339.327 264.868 339.327 256.34C339.327 244.532 352.365 243.466 366.387 243.466ZM366.387 247.812H364.747C355.645 247.812 345.067 248.796 345.067 256.094C345.067 261.588 349.741 263.392 354.087 263.392C361.959 263.392 366.387 257.488 366.387 250.682V247.812ZM381.572 228.624H386.902C387.066 230.674 387.23 233.544 387.23 235.184H387.394C389.526 230.756 395.102 227.64 400.514 227.64C410.272 227.64 415.11 233.954 415.11 243.466V267H409.534V245.762C409.534 237.726 407.156 232.314 399.12 232.314C393.216 232.314 387.476 237.07 387.476 247.32V267H381.9V237.07C381.9 235.02 381.818 231.248 381.572 228.624ZM457.016 260.522C453.736 265.36 447.996 267.984 442.502 267.984C430.53 267.984 422.658 259.128 422.658 247.812C422.658 236.496 430.53 227.64 442.502 227.64C447.996 227.64 453.736 230.264 457.016 235.266H457.18V205.008H462.756V267H457.18V260.522H457.016ZM428.562 247.812C428.562 256.34 433.81 263.228 443.076 263.228C451.686 263.228 457.836 256.586 457.836 247.812C457.836 239.038 451.686 232.314 443.076 232.314C433.81 232.314 428.562 239.284 428.562 247.812Z" fill="#BBB8BD"/>
</g>
<mask id="mask3_26_77" style="mask-type:alpha" maskUnits="userSpaceOnUse" x="0" y="0" width="642" height="394">
<path d="M0 197L160.585 35.9115L199.794 75.2431L274.631 0.171007L360.038 85.8455L445.616 0L642 197L481.415 358.089L442.206 318.757L367.369 393.829L281.962 308.155L196.384 394L0 197Z" fill="#D93838"/>
</mask>
<g mask="url(#mask3_26_77)">
<path d="M137.984 184V93.376H170.112C193.792 93.376 220.16 104.64 220.16 138.688C220.16 170.432 193.792 184 170.112 184H137.984ZM154.112 169.92H167.552C184.192 169.92 202.88 163.136 202.88 138.688C202.88 112.704 184.192 107.2 167.552 107.2H154.112V169.92ZM246.742 147.136H278.23C278.23 139.2 273.75 132.288 263.766 132.288C254.678 132.288 247.382 138.56 246.742 147.136ZM293.59 154.048C293.59 155.456 293.59 156.736 293.462 158.144H246.742C247.382 166.848 255.318 173.248 264.278 173.248C271.958 173.248 277.078 170.176 280.534 165.312L290.774 173.504C284.758 181.696 276.054 185.792 264.406 185.792C245.462 185.792 231.382 173.632 231.382 153.664C231.382 133.824 245.334 120.768 263.894 120.768C281.046 120.768 293.59 131.904 293.59 154.048ZM308.466 184V122.56H323.058V132.416H323.314C326.002 126.272 333.298 120.768 342.386 120.768C358.386 120.768 365.042 133.056 365.042 145.6V184H349.682V149.952C349.682 142.656 348.018 133.568 338.162 133.568C328.434 133.568 323.826 142.016 323.826 150.208V184H308.466ZM421.11 184V176.192H420.726C417.654 181.568 410.358 185.536 401.654 185.536C391.798 185.536 378.614 180.8 378.614 166.464C378.614 148.16 401.654 145.6 420.854 145.6V144.064C420.854 136.512 414.454 132.8 406.774 132.8C400.246 132.8 393.974 135.872 390.006 139.84L382.07 130.496C388.982 124.096 398.71 120.768 408.054 120.768C430.07 120.768 435.446 134.336 435.446 146.624V184H421.11ZM420.854 158.144V155.968H417.398C407.67 155.968 393.974 157.12 393.974 166.208C393.974 172.096 399.478 173.888 404.726 173.888C415.222 173.888 420.854 167.872 420.854 158.144ZM453.597 184V87.232H468.957V184H453.597ZM487.847 184V122.56H503.207V184H487.847ZM485.671 101.696C485.671 96.832 489.767 92.48 495.399 92.48C501.031 92.48 505.383 96.448 505.383 101.696C505.383 106.944 501.031 110.912 495.399 110.912C489.767 110.912 485.671 106.56 485.671 101.696Z" fill="#31385E"/>
</g>
<mask id="mask4_26_77" style="mask-type:alpha" maskUnits="userSpaceOnUse" x="45" y="45" width="551" height="304">
<path d="M445.616 45.6188L382.776 108.655C376.745 114.704 368.566 118.102 360.038 118.102C351.51 118.102 343.331 114.704 337.3 108.655L274.631 45.7898L222.532 98.0524C216.501 104.101 208.322 107.499 199.794 107.499C191.266 107.499 183.087 104.101 177.056 98.0524L160.585 81.5302L45.4762 197L196.385 348.381L259.224 285.345C265.255 279.296 273.434 275.898 281.962 275.898C290.49 275.898 298.669 279.296 304.7 285.345L367.369 348.21L419.468 295.948C425.499 289.899 433.678 286.501 442.206 286.501C450.734 286.501 458.913 289.899 464.944 295.948L481.415 312.47L596 197L445.616 45.6188Z" fill="#D95D39"/>
</mask>
<g mask="url(#mask4_26_77)">
<path d="M137.984 184V93.376H170.112C193.792 93.376 220.16 104.64 220.16 138.688C220.16 170.432 193.792 184 170.112 184H137.984ZM154.112 169.92H167.552C184.192 169.92 202.88 163.136 202.88 138.688C202.88 112.704 184.192 107.2 167.552 107.2H154.112V169.92ZM246.742 147.136H278.23C278.23 139.2 273.75 132.288 263.766 132.288C254.678 132.288 247.382 138.56 246.742 147.136ZM293.59 154.048C293.59 155.456 293.59 156.736 293.462 158.144H246.742C247.382 166.848 255.318 173.248 264.278 173.248C271.958 173.248 277.078 170.176 280.534 165.312L290.774 173.504C284.758 181.696 276.054 185.792 264.406 185.792C245.462 185.792 231.382 173.632 231.382 153.664C231.382 133.824 245.334 120.768 263.894 120.768C281.046 120.768 293.59 131.904 293.59 154.048ZM308.466 184V122.56H323.058V132.416H323.314C326.002 126.272 333.298 120.768 342.386 120.768C358.386 120.768 365.042 133.056 365.042 145.6V184H349.682V149.952C349.682 142.656 348.018 133.568 338.162 133.568C328.434 133.568 323.826 142.016 323.826 150.208V184H308.466ZM421.11 184V176.192H420.726C417.654 181.568 410.358 185.536 401.654 185.536C391.798 185.536 378.614 180.8 378.614 166.464C378.614 148.16 401.654 145.6 420.854 145.6V144.064C420.854 136.512 414.454 132.8 406.774 132.8C400.246 132.8 393.974 135.872 390.006 139.84L382.07 130.496C388.982 124.096 398.71 120.768 408.054 120.768C430.07 120.768 435.446 134.336 435.446 146.624V184H421.11ZM420.854 158.144V155.968H417.398C407.67 155.968 393.974 157.12 393.974 166.208C393.974 172.096 399.478 173.888 404.726 173.888C415.222 173.888 420.854 167.872 420.854 158.144ZM453.597 184V87.232H468.957V184H453.597ZM487.847 184V122.56H503.207V184H487.847ZM485.671 101.696C485.671 96.832 489.767 92.48 495.399 92.48C501.031 92.48 505.383 96.448 505.383 101.696C505.383 106.944 501.031 110.912 495.399 110.912C489.767 110.912 485.671 106.56 485.671 101.696Z" fill="#2B3152"/>
</g>
<mask id="mask5_26_77" style="mask-type:alpha" maskUnits="userSpaceOnUse" x="92" y="92" width="457" height="210">
<path d="M445.616 92.7419L406.264 132.216C394.004 144.513 377.376 151.421 360.038 151.421C342.701 151.421 326.073 144.513 313.812 132.216L274.631 92.9129L246.02 121.614C234.965 132.627 220.353 139.318 204.816 140.482C189.279 141.645 173.839 137.205 161.276 127.96L92 197L196.384 301.258L235.736 261.784C247.997 249.487 264.624 242.579 281.962 242.579C299.299 242.579 315.927 249.487 328.188 261.784L367.369 301.087L395.98 272.386C407.035 261.373 421.647 254.682 437.184 253.518C452.721 252.355 468.161 256.795 480.724 266.04L549 197L445.616 92.7419Z" fill="#D9B638"/>
</mask>
<g mask="url(#mask5_26_77)">
<path d="M137.984 184V93.376H170.112C193.792 93.376 220.16 104.64 220.16 138.688C220.16 170.432 193.792 184 170.112 184H137.984ZM154.112 169.92H167.552C184.192 169.92 202.88 163.136 202.88 138.688C202.88 112.704 184.192 107.2 167.552 107.2H154.112V169.92ZM246.742 147.136H278.23C278.23 139.2 273.75 132.288 263.766 132.288C254.678 132.288 247.382 138.56 246.742 147.136ZM293.59 154.048C293.59 155.456 293.59 156.736 293.462 158.144H246.742C247.382 166.848 255.318 173.248 264.278 173.248C271.958 173.248 277.078 170.176 280.534 165.312L290.774 173.504C284.758 181.696 276.054 185.792 264.406 185.792C245.462 185.792 231.382 173.632 231.382 153.664C231.382 133.824 245.334 120.768 263.894 120.768C281.046 120.768 293.59 131.904 293.59 154.048ZM308.466 184V122.56H323.058V132.416H323.314C326.002 126.272 333.298 120.768 342.386 120.768C358.386 120.768 365.042 133.056 365.042 145.6V184H349.682V149.952C349.682 142.656 348.018 133.568 338.162 133.568C328.434 133.568 323.826 142.016 323.826 150.208V184H308.466ZM421.11 184V176.192H420.726C417.654 181.568 410.358 185.536 401.654 185.536C391.798 185.536 378.614 180.8 378.614 166.464C378.614 148.16 401.654 145.6 420.854 145.6V144.064C420.854 136.512 414.454 132.8 406.774 132.8C400.246 132.8 393.974 135.872 390.006 139.84L382.07 130.496C388.982 124.096 398.71 120.768 408.054 120.768C430.07 120.768 435.446 134.336 435.446 146.624V184H421.11ZM420.854 158.144V155.968H417.398C407.67 155.968 393.974 157.12 393.974 166.208C393.974 172.096 399.478 173.888 404.726 173.888C415.222 173.888 420.854 167.872 420.854 158.144ZM453.597 184V87.232H468.957V184H453.597ZM487.847 184V122.56H503.207V184H487.847ZM485.671 101.696C485.671 96.832 489.767 92.48 495.399 92.48C501.031 92.48 505.383 96.448 505.383 101.696C505.383 106.944 501.031 110.912 495.399 110.912C489.767 110.912 485.671 106.56 485.671 101.696Z" fill="#242945"/>
</g>
<defs>
<clipPath id="clip0_26_77">
<rect width="642" height="394" fill="white"/>
</clipPath>
</defs>
</svg>
